<svg width="142" height="46" viewBox="0 0 142 46" fill="none" xmlns="http://www.w3.org/2000/svg">
<rect x="24" y="8" width="6" height="6" fill="#C5CBD3"/>
<rect x="32" y="8" width="6" height="6" fill="#C5CBD3"/>
<rect x="40" y="8" width="6" height="6" fill="#C5CBD3"/>
<rect x="48" y="8" width="6" height="6" fill="#C5CBD3"/>
<rect x="56" y="8" width="6" height="6" fill="#C5CBD3"/>
<rect x="64" y="8" width="6" height="6" fill="#C5CBD3"/>
<rect x="72" y="8" width="6" height="6" fill="#C5CBD3"/>
<rect x="80" y="8" width="6" height="6" fill="#C5CBD3"/>
<rect x="88" y="8" width="6" height="6" fill="#C5CBD3"/>
<rect x="96" y="8" width="6" height="6" fill="#C5CBD3"/>
<rect x="104" y="8" width="6" height="6" fill="#C5CBD3"/>
<rect x="112" y="8" width="6" height="6" fill="#C5CBD3"/>
<rect x="27" y="16" width="6" height="6" fill="#C5CBD3"/>
<rect x="35" y="16" width="6" height="6" fill="#C5CBD3"/>
<rect x="43" y="16" width="6" height="6" fill="#C5CBD3"/>
<rect x="51" y="16" width="6" height="6" fill="#C5CBD3"/>
<rect x="59" y="16" width="6" height="6" fill="#C5CBD3"/>
<rect x="67" y="16" width="6" height="6" fill="#C5CBD3"/>
<rect x="75" y="16" width="6" height="6" fill="#C5CBD3"/>
<rect x="83" y="16" width="6" height="6" fill="#C5CBD3"/>
<rect x="91" y="16" width="6" height="6" fill="#C5CBD3"/>
<rect x="99" y="16" width="6" height="6" fill="#C5CBD3"/>
<rect x="107" y="16" width="6" height="6" fill="#C5CBD3"/>
<rect x="115" y="16" width="6" height="6" fill="#C5CBD3"/>
<rect x="8" y="24" width="14" height="6" fill="#C5CBD3"/>
<rect x="24" y="24" width="6" height="6" fill="#C5CBD3"/>
<rect x="32" y="24" width="6" height="6" fill="#C5CBD3"/>
<rect x="40" y="24" width="6" height="6" fill="#C5CBD3"/>
<rect x="48" y="24" width="6" height="6" fill="#C5CBD3"/>
<rect x="56" y="24" width="6" height="6" fill="#C5CBD3"/>
<rect x="64" y="24" width="6" height="6" fill="#C5CBD3"/>
<rect x="72" y="24" width="6" height="6" fill="#C5CBD3"/>
<rect x="80" y="24" width="6" height="6" fill="#C5CBD3"/>
<rect x="88" y="24" width="6" height="6" fill="#C5CBD3"/>
<rect x="96" y="24" width="6" height="6" fill="#C5CBD3"/>
<rect x="104" y="24" width="6" height="6" fill="#C5CBD3"/>
<rect x="112" y="24" width="6" height="6" fill="#C5CBD3"/>
<rect x="120" y="24" width="14" height="6" fill="#C5CBD3"/>
<rect x="48" y="32" width="46" height="6" fill="#C5CBD3"/>
</svg>
