<svg width="64" height="64" viewBox="0 0 64 64" fill="none" xmlns="http://www.w3.org/2000/svg">
<path d="M5.42188 52.0469V62H3.02246V52.0469H5.42188ZM9.29102 56.1895V58.0352H4.73828V56.1895H9.29102ZM9.68066 52.0469V53.8994H4.73828V52.0469H9.68066ZM13.2285 52.0469V62H10.8359V52.0469H13.2285ZM23.2295 52.0469V62H20.8369L17.3164 55.8066V62H14.917V52.0469H17.3164L20.8369 58.2402V52.0469H23.2295ZM32.8887 56.6816V60.7695C32.7201 60.9564 32.4603 61.1569 32.1094 61.3711C31.763 61.5807 31.3255 61.7607 30.7969 61.9111C30.2682 62.0615 29.6462 62.1367 28.9307 62.1367C28.2699 62.1367 27.6706 62.0319 27.1328 61.8223C26.5951 61.6081 26.1325 61.2959 25.7451 60.8857C25.3623 60.471 25.0661 59.9652 24.8564 59.3682C24.6514 58.7666 24.5488 58.0785 24.5488 57.3037V56.75C24.5488 55.9753 24.6536 55.2871 24.8633 54.6855C25.0729 54.084 25.3669 53.5781 25.7451 53.168C26.1279 52.7533 26.5768 52.4388 27.0918 52.2246C27.6113 52.0104 28.181 51.9033 28.8008 51.9033C29.7168 51.9033 30.4619 52.0492 31.0361 52.3408C31.6104 52.6279 32.0456 53.0267 32.3418 53.5371C32.638 54.043 32.818 54.6286 32.8818 55.2939H30.5781C30.5326 54.9658 30.446 54.6878 30.3184 54.46C30.1953 54.2275 30.0176 54.0521 29.7852 53.9336C29.5527 53.8105 29.252 53.749 28.8828 53.749C28.5957 53.749 28.3337 53.8105 28.0967 53.9336C27.8643 54.0566 27.666 54.2435 27.502 54.4941C27.3379 54.7402 27.2103 55.0501 27.1191 55.4238C27.0326 55.7975 26.9893 56.235 26.9893 56.7363V57.3037C26.9893 57.8005 27.0303 58.2357 27.1123 58.6094C27.1989 58.9831 27.3265 59.2952 27.4951 59.5459C27.6683 59.792 27.887 59.9788 28.1514 60.1064C28.4202 60.2295 28.737 60.291 29.1016 60.291C29.3568 60.291 29.5755 60.2705 29.7578 60.2295C29.9401 60.1839 30.0905 60.1292 30.209 60.0654C30.332 59.9971 30.4255 59.9333 30.4893 59.874V58.3291H28.8213V56.6816H32.8887ZM34.29 52.0469H38.207C38.9727 52.0469 39.638 52.1608 40.2031 52.3887C40.7682 52.6165 41.2035 52.9538 41.5088 53.4004C41.8187 53.847 41.9736 54.3984 41.9736 55.0547C41.9736 55.6243 41.8848 56.1006 41.707 56.4834C41.5293 56.8662 41.2809 57.1829 40.9619 57.4336C40.6475 57.6797 40.2806 57.8825 39.8613 58.042L39.0752 58.4863H35.7871L35.7734 56.6338H38.207C38.5124 56.6338 38.7653 56.5791 38.9658 56.4697C39.1663 56.3604 39.3167 56.2054 39.417 56.0049C39.5218 55.7998 39.5742 55.556 39.5742 55.2734C39.5742 54.9863 39.5218 54.7402 39.417 54.5352C39.3122 54.3301 39.1572 54.1729 38.9521 54.0635C38.7516 53.9541 38.5033 53.8994 38.207 53.8994H36.6895V62H34.29V52.0469ZM39.7383 62L37.5371 57.5977L40.0801 57.584L42.3086 61.8975V62H39.7383ZM47.6406 54.1387L45.2139 62H42.6367L46.2939 52.0469H47.9277L47.6406 54.1387ZM49.6504 62L47.2168 54.1387L46.9023 52.0469H48.5566L52.2344 62H49.6504ZM49.5547 58.2881V60.1406H44.4482V58.2881H49.5547ZM52.9658 52.0469H56.8828C57.6484 52.0469 58.3138 52.1608 58.8789 52.3887C59.444 52.6165 59.8792 52.9538 60.1846 53.4004C60.4945 53.847 60.6494 54.3984 60.6494 55.0547C60.6494 55.6243 60.5605 56.1006 60.3828 56.4834C60.2051 56.8662 59.9567 57.1829 59.6377 57.4336C59.3232 57.6797 58.9564 57.8825 58.5371 58.042L57.751 58.4863H54.4629L54.4492 56.6338H56.8828C57.1882 56.6338 57.4411 56.5791 57.6416 56.4697C57.8421 56.3604 57.9925 56.2054 58.0928 56.0049C58.1976 55.7998 58.25 55.556 58.25 55.2734C58.25 54.9863 58.1976 54.7402 58.0928 54.5352C57.988 54.3301 57.833 54.1729 57.6279 54.0635C57.4274 53.9541 57.179 53.8994 56.8828 53.8994H55.3652V62H52.9658V52.0469ZM58.4141 62L56.2129 57.5977L58.7559 57.584L60.9844 61.8975V62H58.4141Z" fill="#D38E03"/>
<circle cx="25.8018" cy="28" r="1" transform="rotate(90 25.8018 28)" fill="white"/>
<circle cx="28.8018" cy="28" r="1" transform="rotate(90 28.8018 28)" fill="white"/>
<circle cx="31.8018" cy="28" r="1" transform="rotate(90 31.8018 28)" fill="white"/>
<path d="M17.8018 42L23.833 37C23.833 37 27.8786 39 31.8018 39C35.7249 39 39.7705 37 39.7705 37L45.8018 42L48.0499 33.7569C48.5158 32.0486 48.0447 30.2202 46.7998 28.961C45.7115 27.8603 44.4571 26.6058 43.8018 26C43.8018 7.86813 31.8012 2 31.8012 2C31.8012 2 19.8018 7.86813 19.8018 26C19.4536 26.3217 18.0594 27.7177 16.8314 28.9531C15.5736 30.2184 15.0908 32.0598 15.5602 33.7811L17.8018 42Z" fill="#D38E03" stroke="#D38E03" stroke-width="2" stroke-linejoin="round"/>
<path d="M31.8018 48C28.9893 48 26.8018 41 26.8018 41C26.8018 41 30.8643 45.2 31.8018 45.2C32.7393 45.2 36.8018 41 36.8018 41C36.8018 41 34.6143 48 31.8018 48Z" fill="#D38E03"/>
<path fill-rule="evenodd" clip-rule="evenodd" d="M33.8018 22V24C33.8018 24.5523 34.2495 25 34.8018 25C35.354 25 35.8018 24.5523 35.8018 24V22C35.8018 21.4477 35.354 21 34.8018 21C34.2495 21 33.8018 21.4477 33.8018 22ZM29.8018 22V24C29.8018 26.7614 32.0403 29 34.8018 29C37.5632 29 39.8018 26.7614 39.8018 24V22C39.8018 19.2386 37.5632 17 34.8018 17C32.0403 17 29.8018 19.2386 29.8018 22Z" fill="white"/>
<path fill-rule="evenodd" clip-rule="evenodd" d="M23.8018 19C23.8018 17.8954 24.6972 17 25.8018 17H26.8018C27.9063 17 28.8018 17.8954 28.8018 19V27C28.8018 28.1046 27.9063 29 26.8018 29C25.6972 29 24.8018 28.1046 24.8018 27V20.7324C24.204 20.3866 23.8018 19.7403 23.8018 19Z" fill="white"/>
</svg>
