<svg width="64" height="64" viewBox="0 0 64 64" fill="none" xmlns="http://www.w3.org/2000/svg">
<path d="M11.3428 52.0469V62H8.94336V52.0469H11.3428ZM15.2119 56.1895V58.0352H10.6592V56.1895H15.2119ZM15.6016 52.0469V53.8994H10.6592V52.0469H15.6016ZM19.1494 52.0469V62H16.7568V52.0469H19.1494ZM29.1504 52.0469V62H26.7578L23.2373 55.8066V62H20.8379V52.0469H23.2373L26.7578 58.2402V52.0469H29.1504ZM38.8096 56.6816V60.7695C38.641 60.9564 38.3812 61.1569 38.0303 61.3711C37.6839 61.5807 37.2464 61.7607 36.7178 61.9111C36.1891 62.0615 35.5671 62.1367 34.8516 62.1367C34.1908 62.1367 33.5915 62.0319 33.0537 61.8223C32.516 61.6081 32.0534 61.2959 31.666 60.8857C31.2832 60.471 30.987 59.9652 30.7773 59.3682C30.5723 58.7666 30.4697 58.0785 30.4697 57.3037V56.75C30.4697 55.9753 30.5745 55.2871 30.7842 54.6855C30.9938 54.084 31.2878 53.5781 31.666 53.168C32.0488 52.7533 32.4977 52.4388 33.0127 52.2246C33.5322 52.0104 34.1019 51.9033 34.7217 51.9033C35.6377 51.9033 36.3828 52.0492 36.957 52.3408C37.5312 52.6279 37.9665 53.0267 38.2627 53.5371C38.5589 54.043 38.7389 54.6286 38.8027 55.2939H36.499C36.4535 54.9658 36.3669 54.6878 36.2393 54.46C36.1162 54.2275 35.9385 54.0521 35.7061 53.9336C35.4736 53.8105 35.1729 53.749 34.8037 53.749C34.5166 53.749 34.2546 53.8105 34.0176 53.9336C33.7852 54.0566 33.5869 54.2435 33.4229 54.4941C33.2588 54.7402 33.1312 55.0501 33.04 55.4238C32.9535 55.7975 32.9102 56.235 32.9102 56.7363V57.3037C32.9102 57.8005 32.9512 58.2357 33.0332 58.6094C33.1198 58.9831 33.2474 59.2952 33.416 59.5459C33.5892 59.792 33.8079 59.9788 34.0723 60.1064C34.3411 60.2295 34.6579 60.291 35.0225 60.291C35.2777 60.291 35.4964 60.2705 35.6787 60.2295C35.861 60.1839 36.0114 60.1292 36.1299 60.0654C36.2529 59.9971 36.3464 59.9333 36.4102 59.874V58.3291H34.7422V56.6816H38.8096ZM47.0605 60.1543V62H41.7559V60.1543H47.0605ZM42.6104 52.0469V62H40.2109V52.0469H42.6104ZM46.377 55.998V57.7822H41.7559V55.998H46.377ZM47.0811 52.0469V53.8994H41.7559V52.0469H47.0811ZM48.0449 52.0469H51.9619C52.7275 52.0469 53.3929 52.1608 53.958 52.3887C54.5231 52.6165 54.9583 52.9538 55.2637 53.4004C55.5736 53.847 55.7285 54.3984 55.7285 55.0547C55.7285 55.6243 55.6396 56.1006 55.4619 56.4834C55.2842 56.8662 55.0358 57.1829 54.7168 57.4336C54.4023 57.6797 54.0355 57.8825 53.6162 58.042L52.8301 58.4863H49.542L49.5283 56.6338H51.9619C52.2673 56.6338 52.5202 56.5791 52.7207 56.4697C52.9212 56.3604 53.0716 56.2054 53.1719 56.0049C53.2767 55.7998 53.3291 55.556 53.3291 55.2734C53.3291 54.9863 53.2767 54.7402 53.1719 54.5352C53.0671 54.3301 52.9121 54.1729 52.707 54.0635C52.5065 53.9541 52.2581 53.8994 51.9619 53.8994H50.4443V62H48.0449V52.0469ZM53.4932 62L51.292 57.5977L53.835 57.584L56.0635 61.8975V62H53.4932Z" fill="#106EBE"/>
<circle cx="25.8018" cy="28" r="1" transform="rotate(90 25.8018 28)" fill="white"/>
<circle cx="28.8018" cy="28" r="1" transform="rotate(90 28.8018 28)" fill="white"/>
<circle cx="31.8018" cy="28" r="1" transform="rotate(90 31.8018 28)" fill="white"/>
<path d="M17.8018 42L23.833 37C23.833 37 27.8786 39 31.8018 39C35.7249 39 39.7705 37 39.7705 37L45.8018 42L48.0499 33.7569C48.5158 32.0486 48.0447 30.2202 46.7998 28.961C45.7115 27.8603 44.4571 26.6058 43.8018 26C43.8018 7.86813 31.8012 2 31.8012 2C31.8012 2 19.8018 7.86813 19.8018 26C19.4536 26.3217 18.0594 27.7177 16.8314 28.9531C15.5736 30.2184 15.0908 32.0598 15.5602 33.7811L17.8018 42Z" fill="#106EBE" stroke="#106EBE" stroke-width="2" stroke-linejoin="round"/>
<path d="M31.8018 48C28.9893 48 26.8018 41 26.8018 41C26.8018 41 30.8643 45.2 31.8018 45.2C32.7393 45.2 36.8018 41 36.8018 41C36.8018 41 34.6143 48 31.8018 48Z" fill="#106EBE"/>
<path fill-rule="evenodd" clip-rule="evenodd" d="M33.8018 22V24C33.8018 24.5523 34.2495 25 34.8018 25C35.354 25 35.8018 24.5523 35.8018 24V22C35.8018 21.4477 35.354 21 34.8018 21C34.2495 21 33.8018 21.4477 33.8018 22ZM29.8018 22V24C29.8018 26.7614 32.0403 29 34.8018 29C37.5632 29 39.8018 26.7614 39.8018 24V22C39.8018 19.2386 37.5632 17 34.8018 17C32.0403 17 29.8018 19.2386 29.8018 22Z" fill="white"/>
<path fill-rule="evenodd" clip-rule="evenodd" d="M23.8018 19C23.8018 17.8954 24.6972 17 25.8018 17H26.8018C27.9063 17 28.8018 17.8954 28.8018 19V27C28.8018 28.1046 27.9063 29 26.8018 29C25.6972 29 24.8018 28.1046 24.8018 27V20.7324C24.204 20.3866 23.8018 19.7403 23.8018 19Z" fill="white"/>
</svg>
