<svg width="24" height="24" viewBox="0 0 24 24" fill="none" xmlns="http://www.w3.org/2000/svg">
<path d="M18 5V2C18 1.44772 17.5523 1 17 1H7C6.44772 1 6 1.44772 6 2L6 5" stroke="#212631" stroke-width="2"/>
<path d="M18.6 15H22C22.5523 15 23 14.5523 23 14V6C23 5.44772 22.5523 5 22 5H2C1.44772 5 1 5.44772 1 6V14C1 14.5523 1.44772 15 2 15H5.4" stroke="#212631" stroke-width="2"/>
<rect x="6" y="9" width="12" height="14" rx="1" stroke="#212631" stroke-width="2"/>
<path d="M10 17H14" stroke="#212631" stroke-width="2" stroke-linecap="round"/>
<path d="M10 13H14" stroke="#212631" stroke-width="2" stroke-linecap="round"/>
</svg>
